<svg xmlns="http://www.w3.org/2000/svg" viewBox="0 0 64 64"><linearGradient id="YXFiyEVsATmhkRzuAL~eZa" x1="32" x2="32" y1="-1041.5" y2="-1044.51" gradientTransform="matrix(1 0 0 -1 0 -1026)" gradientUnits="userSpaceOnUse"><stop offset="0" stop-color="#6dc7ff"></stop><stop offset="1" stop-color="#e6abff"></stop></linearGradient><path fill="url(#YXFiyEVsATmhkRzuAL~eZa)" d="M14,16h36v2H14V16z"></path><linearGradient id="YXFiyEVsATmhkRzuAL~eZb" x1="32" x2="32" y1="-1037.75" y2="-1078.283" gradientTransform="matrix(1 0 0 -1 0 -1026)" gradientUnits="userSpaceOnUse"><stop offset="0" stop-color="#1a6dff"></stop><stop offset="1" stop-color="#c822ff"></stop></linearGradient><path fill="url(#YXFiyEVsATmhkRzuAL~eZb)" d="M52,12H12c-1.654,0-3,1.346-3,3v4c0,1.654,1.346,3,3,3h1.124l3.422,25.661 C16.875,50.135,19.006,52,21.502,52h20.996c2.496,0,4.627-1.865,4.956-4.339L50.876,22H52c1.654,0,3-1.346,3-3v-4 C55,13.346,53.654,12,52,12z M45.472,47.397C45.274,48.881,43.995,50,42.498,50H21.502c-1.497,0-2.776-1.119-2.974-2.603L15.143,22 h33.715L45.472,47.397z M53,19c0,0.552-0.448,1-1,1h-0.857H12.857H12c-0.552,0-1-0.448-1-1v-4c0-0.552,0.448-1,1-1h40 c0.552,0,1,0.448,1,1V19z"></path><linearGradient id="YXFiyEVsATmhkRzuAL~eZc" x1="32" x2="32" y1="-1037.75" y2="-1078.283" gradientTransform="matrix(1 0 0 -1 0 -1026)" gradientUnits="userSpaceOnUse"><stop offset="0" stop-color="#1a6dff"></stop><stop offset="1" stop-color="#c822ff"></stop></linearGradient><path fill="url(#YXFiyEVsATmhkRzuAL~eZc)" d="M20.891,46.269C21.025,47.256,21.878,48,22.874,48h18.252c0.996,0,1.849-0.744,1.983-1.731 L46.146,24H17.854L20.891,46.269z M31,43v3h-4v-3H31z M27,41v-4h4v4H27z M33,43h4v3h-4V43z M33,41v-4h4v4H33z M39,37h3.354 l-0.545,4H39V37z M39,35v-4h4.173l-0.545,4H39z M37,35h-4v-4h4V35z M33,29v-3h4v3H33z M31,29h-4v-3h4V29z M31,31v4h-4v-4H31z M25,35h-3.627l-0.545-4H25V35z M25,37v4h-2.809l-0.545-4H25z M22.873,46l-0.409-3H25v3H22.873z M39,46v-3h2.536l-0.409,3H39z M43.445,29H39v-3h4.854L43.445,29z M25,26v3h-4.445l-0.409-3H25z"></path></svg>