<svg xmlns="http://www.w3.org/2000/svg" viewBox="0 0 64 64"><linearGradient id="tPYuyhbQal0xkOtH1osRba" x1="50" x2="50" y1="46" y2="54.334" gradientUnits="userSpaceOnUse" spreadMethod="reflect"><stop offset="0" stop-color="#6dc7ff"></stop><stop offset="1" stop-color="#e6abff"></stop></linearGradient><path fill="url(#tPYuyhbQal0xkOtH1osRba)" d="M46,46h8v7c0,0.552-0.448,1-1,1h-7V46z"></path><linearGradient id="tPYuyhbQal0xkOtH1osRbb" x1="50" x2="50" y1="35.583" y2="44.5" gradientUnits="userSpaceOnUse" spreadMethod="reflect"><stop offset="0" stop-color="#6dc7ff"></stop><stop offset="1" stop-color="#e6abff"></stop></linearGradient><path fill="url(#tPYuyhbQal0xkOtH1osRbb)" d="M46,36h7c0.552,0,1,0.448,1,1v7h-8V36z"></path><linearGradient id="tPYuyhbQal0xkOtH1osRbc" x1="40" x2="40" y1="46" y2="54.334" gradientUnits="userSpaceOnUse" spreadMethod="reflect"><stop offset="0" stop-color="#6dc7ff"></stop><stop offset="1" stop-color="#e6abff"></stop></linearGradient><path fill="url(#tPYuyhbQal0xkOtH1osRbc)" d="M36,46h8v8h-7c-0.552,0-1-0.448-1-1V46z"></path><linearGradient id="tPYuyhbQal0xkOtH1osRbd" x1="40" x2="40" y1="35.583" y2="44.5" gradientUnits="userSpaceOnUse" spreadMethod="reflect"><stop offset="0" stop-color="#6dc7ff"></stop><stop offset="1" stop-color="#e6abff"></stop></linearGradient><path fill="url(#tPYuyhbQal0xkOtH1osRbd)" d="M37,36h7v8h-8v-7C36,36.448,36.448,36,37,36z"></path><linearGradient id="tPYuyhbQal0xkOtH1osRbe" x1="32" x2="32" y1="5.833" y2="58.841" gradientUnits="userSpaceOnUse" spreadMethod="reflect"><stop offset="0" stop-color="#1a6dff"></stop><stop offset="1" stop-color="#c822ff"></stop></linearGradient><path fill="url(#tPYuyhbQal0xkOtH1osRbe)" d="M53,32h-5v-4v-2v-8v-2v-3v-2c0-2.757-2.243-5-5-5h-1h-4h-2h-8h-2H16h-5c-2.757,0-5,2.243-5,5 v5v10v2v8v2v2v3c0,2.757,2.243,5,5,5h2h3h2h8h2h4v5c0,2.757,2.243,5,5,5h16c2.757,0,5-2.243,5-5V37C58,34.243,55.757,32,53,32z M46,32h-8v-4h8V32z M32.101,36H28v-8h8v4.101C34.044,32.5,32.5,34.044,32.101,36z M18,28h8v8h-8V28z M18,18h8v8h-8V18z M36,26h-8 v-8h8V26z M46,26h-8v-8h8V26z M42,8h1c1.654,0,3,1.346,3,3v2v3h-8V8H42z M36,8v8h-8V8H36z M26,16h-8V8h8V16z M11,8h5v8H8v-5 C8,9.346,9.346,8,11,8z M8,18h8v8H8V18z M8,28h8v8H8V28z M13,46h-2c-1.654,0-3-1.346-3-3v-3v-2h8v8H13z M18,46v-8h8v8H18z M28,46v-8 h4v8H28z M56,53c0,1.654-1.346,3-3,3H37c-1.654,0-3-1.346-3-3v-5v-2v-9c0-1.654,1.346-3,3-3h9h2h5c1.654,0,3,1.346,3,3V53z"></path></svg>