<svg xmlns="http://www.w3.org/2000/svg" viewBox="0 0 64 64"><linearGradient id="LHfxV9J39voY4D8ouyhMQa" x1="34.971" x2="34.971" y1="19.5" y2="39.305" gradientUnits="userSpaceOnUse" spreadMethod="reflect"><stop offset="0" stop-color="#6dc7ff"></stop><stop offset="1" stop-color="#e6abff"></stop></linearGradient><path fill="url(#LHfxV9J39voY4D8ouyhMQa)" d="M42.749 38.223L25.778 21.252 27.192 19.838 44.163 36.809z"></path><linearGradient id="LHfxV9J39voY4D8ouyhMQb" x1="32.142" x2="32.142" y1="19.5" y2="39.305" gradientUnits="userSpaceOnUse" spreadMethod="reflect"><stop offset="0" stop-color="#6dc7ff"></stop><stop offset="1" stop-color="#e6abff"></stop></linearGradient><path fill="url(#LHfxV9J39voY4D8ouyhMQb)" d="M39.92 41.051L22.95 24.08 24.364 22.666 41.334 39.637z"></path><linearGradient id="LHfxV9J39voY4D8ouyhMQc" x1="32" x2="32" y1="8.75" y2="55.256" gradientUnits="userSpaceOnUse" spreadMethod="reflect"><stop offset="0" stop-color="#1a6dff"></stop><stop offset="1" stop-color="#c822ff"></stop></linearGradient><path fill="url(#LHfxV9J39voY4D8ouyhMQc)" d="M33.997,48l18.044-18.124c1.942-1.951,1.942-5.125,0-7.076L40.76,11.469 C39.817,10.521,38.563,10,37.23,10s-2.587,0.521-3.529,1.469l-19.742,19.83c-1.942,1.95-1.942,5.125,0,7.075L23.542,48H6v2h52v-2 H33.997z M15.377,36.964c-1.168-1.173-1.168-3.082,0-4.255l19.742-19.83c1.127-1.133,3.096-1.133,4.223,0L50.623,24.21 c1.168,1.174,1.168,3.082,0,4.256L31.174,48h-4.81L15.377,36.964z"></path><linearGradient id="LHfxV9J39voY4D8ouyhMQd" x1="21.243" x2="21.243" y1="8.75" y2="55.256" gradientUnits="userSpaceOnUse" spreadMethod="reflect"><stop offset="0" stop-color="#1a6dff"></stop><stop offset="1" stop-color="#c822ff"></stop></linearGradient><path fill="url(#LHfxV9J39voY4D8ouyhMQd)" d="M25.071,29.03l-1.414-1.414L18,33.272c-0.78,0.779-0.78,2.049,0,2.828l2.828,2.829 l1.414-1.414l-2.828-2.829L25.071,29.03z"></path><linearGradient id="LHfxV9J39voY4D8ouyhMQe" x1="32" x2="32" y1="8.75" y2="55.256" gradientUnits="userSpaceOnUse" spreadMethod="reflect"><stop offset="0" stop-color="#1a6dff"></stop><stop offset="1" stop-color="#c822ff"></stop></linearGradient><path fill="url(#LHfxV9J39voY4D8ouyhMQe)" d="M12 52H52V54H12z"></path><linearGradient id="LHfxV9J39voY4D8ouyhMQf" x1="37" x2="37" y1="13.5" y2="18.333" gradientUnits="userSpaceOnUse" spreadMethod="reflect"><stop offset="0" stop-color="#6dc7ff"></stop><stop offset="1" stop-color="#e6abff"></stop></linearGradient><path fill="url(#LHfxV9J39voY4D8ouyhMQf)" d="M41.243,18l-3.536-3.535c-0.391-0.391-1.024-0.391-1.414,0L32.757,18H41.243z"></path></svg>