<svg xml:space="preserve" width="30" height="30" version="1.1" style="clip-rule:evenodd;fill-rule:evenodd;image-rendering:optimizeQuality;shape-rendering:geometricPrecision;text-rendering:geometricPrecision" viewBox="0 0 30 30" id="svg81" xmlns="http://www.w3.org/2000/svg" xmlns:svg="http://www.w3.org/2000/svg"> <defs id="defs53"> <style type="text/css" id="style2"> <![CDATA[ .fil0 {fill:#303030} .fil2 {fill:#A4A4A4} .fil3 {fill:#BEBEBE} .fil6 {fill:#C82800} .fil1 {fill:#D8D8D8} .fil11 {fill:url(#id0)} .fil7 {fill:url(#id1)} .fil5 {fill:url(#id2)} .fil4 {fill:url(#id3)} .fil8 {fill:url(#id4)} .fil9 {fill:url(#id5)} .fil10 {fill:url(#id6)} ]]> </style> <linearGradient id="id0" gradientUnits="userSpaceOnUse" x1="290.314" y1="115.217" x2="387.79001" y2="212.69501"> <stop offset="0" style="stop-color:#383838" id="stop4" /> <stop offset="0.658824" style="stop-color:#606060" id="stop6" /> <stop offset="1" style="stop-color:#303030" id="stop8" /> </linearGradient> <linearGradient id="id1" gradientUnits="userSpaceOnUse" x1="362.58899" y1="36.480999" x2="463.521" y2="137.41299" gradientTransform="matrix(1,0,0,-1,-43.359607,450.73275)"> <stop offset="0" style="stop-color:#ED2F00" id="stop11" /> <stop offset="0.25098" style="stop-color:#FFA28B" id="stop13" /> <stop offset="0.701961" style="stop-color:#C82800" id="stop15" /> <stop offset="1" style="stop-color:#FF3300" id="stop17" /> </linearGradient> <linearGradient id="id2" gradientUnits="userSpaceOnUse" x1="312.63599" y1="85.811996" x2="414.45801" y2="187.634" gradientTransform="matrix(1,0,0,-1,-43.359607,450.73275)"> <stop offset="0" style="stop-color:#A4A4A4" id="stop20" /> <stop offset="0.4" style="stop-color:#686868" id="stop22" /> <stop offset="0.639216" style="stop-color:#F2F2F2" id="stop24" /> <stop offset="1" style="stop-color:#B1B1B1" id="stop26" /> </linearGradient> <linearGradient id="id3" gradientUnits="userSpaceOnUse" x1="342.32999" y1="57.533001" x2="442.73599" y2="157.939"> <stop offset="0" style="stop-color:#D8D8D8" id="stop29" /> <stop offset="0.258824" style="stop-color:#E5E5E5" id="stop31" /> <stop offset="0.658824" style="stop-color:#8A8A8A" id="stop33" /> <stop offset="1" style="stop-color:#CBCBCB" id="stop35" /> </linearGradient> <linearGradient id="id4" gradientUnits="userSpaceOnUse" x1="248.229" y1="293.98499" x2="205.91499" y2="251.67101" gradientTransform="matrix(1,0,0,-1,40.640394,534.73275)"> <stop offset="0" style="stop-color:#17A2FF" id="stop38" /> <stop offset="1" style="stop-color:#008EED" id="stop40" /> </linearGradient> <linearGradient id="id5" gradientUnits="userSpaceOnUse" x1="245.03799" y1="300.80399" x2="274.258" y2="330.02399" gradientTransform="matrix(1,0,0,-1,40.640414,534.73275)"> <stop offset="0" style="stop-color:#0062A4" id="stop43" /> <stop offset="1" style="stop-color:#008EED" id="stop45" /> </linearGradient> <linearGradient id="id6" gradientUnits="userSpaceOnUse" x1="199.563" y1="249.336" x2="175.005" y2="224.778" gradientTransform="matrix(1,0,0,-1,40.640414,534.73275)"> <stop offset="0" style="stop-color:#5DBEFF" id="stop48" /> <stop offset="1" style="stop-color:#17A2FF" id="stop50" /> </linearGradient> </defs> <g id="Layer_x0020_1" transform="translate(-0.54864696,-127.08806)"> <metadata id="CorelCorpID_0Corel-Layer" /> <g id="g3198" transform="matrix(0.07984032,0,0,-0.07984032,-4.2929015,161.46576)"><path class="fil0" d="m 68.640394,84.732759 -8,-25 c 0,-2 0,-3 1,-4 1,-1 2,-1 4,-1 l 25,8 z" id="path56" /><path class="fil1" d="m 107.64039,195.73275 37,-7 L 73.640394,76.732759 c -1,-2 -3,-2 -5,-1 -2,1 -2,2 -2,4 z" id="path58" /><path class="fil2" d="m 201.64039,101.73276 -7,37 L 82.640394,67.732759 c -2,-1 -2,-3 -1,-5 1,-2 2,-2 4,-2 z" id="path60" /><path class="fil3" d="m 82.640394,67.732759 c 36.999996,23 74.999996,47.000001 111.999996,71.000001 l -50,49.99999 c -24,-37.99999 -47.999996,-74.99999 -70.999996,-111.999991 -1,-1 -3,-4 0,-7 3,-3 5,-5 9,-2 z" id="path62" /><path class="fil8" d="m 396.64039,340.73275 -50,50 -201,-201 c -14,-14 -13,-36 0,-49.99999 v 0 c 14,-13 36,-14 50,0 z" id="path72" style="fill:url(#id4)" /><path class="fil9" d="m 396.64039,340.73275 25,-25 -201,-200.99999 c -14,-14 -30,-19.000001 -37,-12 v 0 c -7,7 -2,23 12,37 z" id="path74" style="fill:url(#id5)" /><path class="fil10" d="m 321.64039,415.73275 25,-25 -201,-201 c -14,-14 -30,-19 -37,-12 v 0 c -7,7 -2,23 12,37 z" id="path76" style="fill:url(#id6)" /><polygon class="fil4" points="392,208 448,152 348,52 292,108 " id="polygon64" style="fill:url(#id3)" transform="matrix(1,0,0,-1,-43.359607,450.73275)" /><path class="fil5" d="m 266.64039,360.73275 100,-100 4,4 -100,100 z m 8,8 100,-100 4,4 -100,100 z m 8,8 100,-100 4,5 -99,99 z" id="path66" style="fill:url(#id2)" /><path class="fil6" d="m 363.64039,423.73275 66,-66 c 9,-10 9,-25 0,-34 l -8,-8 -100,100 8,8 c 9,9 24,9 34,0 z" id="path68" /><path class="fil7" d="m 355.64039,414.73275 66,-66 c 9,-9 9,-24 0,-33 l -17,-17 -100,100 16,16 c 10,10 25,10 35,0 z" id="path70" style="fill:url(#id1)" /><polygon class="fil11" points="392,208 381,219 281,119 292,108 " id="polygon78" style="fill:url(#id0)" transform="matrix(1,0,0,-1,-43.359607,450.73275)" /></g></g> </svg>