<svg xmlns="http://www.w3.org/2000/svg" viewBox="0 0 64 64"><linearGradient id="iF4LZB5rSgKPpR11_mSCqa" x1="32" x2="32" y1="7.5" y2="16.006" gradientUnits="userSpaceOnUse" spreadMethod="reflect"><stop offset="0" stop-color="#6dc7ff"></stop><stop offset="1" stop-color="#e6abff"></stop></linearGradient><path fill="url(#iF4LZB5rSgKPpR11_mSCqa)" d="M39,15H25V9c0-0.552,0.447-1,0.999-1h12C38.552,8,39,8.448,39,9V15z"></path><linearGradient id="iF4LZB5rSgKPpR11_mSCqb" x1="32" x2="32" y1="5.167" y2="58.668" gradientUnits="userSpaceOnUse" spreadMethod="reflect"><stop offset="0" stop-color="#1a6dff"></stop><stop offset="1" stop-color="#c822ff"></stop></linearGradient><path fill="url(#iF4LZB5rSgKPpR11_mSCqb)" d="M41,15.278V9c0-1.654-1.347-3-3.001-3h-12C24.346,6,23,7.346,23,9v6.278 c-0.595,0.347-1,0.985-1,1.722v2c0,0.737,0.405,1.375,1,1.722v26.565l5.497,8.782C29.255,57.278,30.563,58,31.999,58 c1.437,0,2.745-0.722,3.503-1.932L41,47.287V21v-0.269c0.598-0.346,1-0.992,1-1.731v-2C42,16.264,41.595,15.625,41,15.278z M40,19 H24v-2h16V19z M35.039,53.039C34.196,52.391,33.145,52,32,52c-1.146,0-2.196,0.391-3.04,1.039l-1.597-2.552 C28.712,49.526,30.326,49,31.999,49c1.673,0,3.289,0.526,4.638,1.487L35.039,53.039z M31.999,47c-2.051,0-4.031,0.635-5.697,1.792 l-1.064-1.7C27.233,45.725,29.553,45,31.999,45c2.448,0,4.769,0.726,6.763,2.094l-1.064,1.699C36.031,47.635,34.051,47,31.999,47z M27,21v22.927c-0.689,0.264-1.357,0.582-2,0.956V21H27z M31,43.041c-0.678,0.047-1.345,0.148-2,0.29V21h2V43.041z M33,43.041V21h2 v22.331C34.345,43.188,33.678,43.088,33,43.041z M25.999,8h12C38.551,8,39,8.448,39,9v6H25V9C25,8.448,25.448,8,25.999,8z M39,44.884c-0.643-0.374-1.311-0.693-2-0.957V21h2V44.884z"></path></svg>