<svg xmlns="http://www.w3.org/2000/svg" viewBox="0 0 64 64"><linearGradient id="TTLGBNTwf~_qpnyg4RWYra" x1="12" x2="12" y1="9.583" y2="51.833" gradientUnits="userSpaceOnUse" spreadMethod="reflect"><stop offset="0" stop-color="#6dc7ff"></stop><stop offset="1" stop-color="#e6abff"></stop></linearGradient><path fill="url(#TTLGBNTwf~_qpnyg4RWYra)" d="M20.03,38.83v-7.11L20,24.53v-7.31c0-0.28,0.02-0.56,0.05-0.83c-1.2-0.88-2.67-1.39-4.27-1.39 H8.22C4.23,15,1,18.23,1,22.21V49.2C1,50.19,1.81,51,2.8,51h3.4C7.19,51,8,50.19,8,49.2l-0.01-9.16H16v9.16 c0,0.99,0.81,1.8,1.81,1.8h3.39c0.99,0,1.8-0.81,1.8-1.8v-4.54C21.2,43.35,20.03,41.23,20.03,38.83z M14.19,33.02H9.8 c-0.99,0-1.8-0.81-1.8-1.8v-7.41c0-0.99,0.81-1.8,1.8-1.8l4.37,0.02c1,0,1.81,0.81,1.81,1.8l0.01,7.39 C15.99,32.21,15.18,33.02,14.19,33.02z"></path><linearGradient id="TTLGBNTwf~_qpnyg4RWYrb" x1="12" x2="12" y1="9.417" y2="51.917" gradientUnits="userSpaceOnUse" spreadMethod="reflect"><stop offset="0" stop-color="#1a6dff"></stop><stop offset="1" stop-color="#c822ff"></stop></linearGradient><path fill="url(#TTLGBNTwf~_qpnyg4RWYrb)" d="M21.2,52h-3.39C16.261,52,15,50.744,15,49.2V41H9v8.199C9,50.744,7.744,52,6.2,52H2.8 C1.256,52,0,50.744,0,49.2V22.21C0,17.683,3.688,14,8.22,14h7.56c1.768,0,3.449,0.548,4.861,1.583 c0.288,0.212,0.442,0.561,0.403,0.916C21.018,16.734,21,16.758,21,17v22c0,2.008,0.963,3.668,2.589,4.852 C23.847,44.04,24,44.341,24,44.66v4.54C24,50.744,22.744,52,21.2,52z M7.99,39.04H16c0.552,0,1,0.447,1,1v9.16 c0,0.441,0.363,0.8,0.81,0.8h3.39c0.441,0,0.8-0.358,0.8-0.8v-4.052c-1.868-1.553-2.97-3.877-2.97-6.318L19,17.22 c0-0.108,0.002-0.217,0.007-0.325C18.041,16.308,16.936,16,15.78,16H8.22C4.791,16,2,18.786,2,22.21V49.2C2,49.642,2.359,50,2.8,50 h3.4C6.641,50,7,49.441,7,49v-9c0-0.266,0.095-0.479,0.283-0.667C7.47,39.146,7.725,39.04,7.99,39.04z"></path><linearGradient id="TTLGBNTwf~_qpnyg4RWYrc" x1="52" x2="52" y1="9.541" y2="51.833" gradientUnits="userSpaceOnUse" spreadMethod="reflect"><stop offset="0" stop-color="#6dc7ff"></stop><stop offset="1" stop-color="#e6abff"></stop></linearGradient><path fill="url(#TTLGBNTwf~_qpnyg4RWYrc)" d="M61.167,22.041c1.013,0,1.833-0.807,1.833-1.802v-3.396c0-0.995-0.821-1.802-1.833-1.802 H48.333c-4.05,0-7.333,3.227-7.333,7.209V25c2.2,1.235,4,4.05,4,6.75l-0.031,7.062c0,2.784-1.501,5.211-3.767,6.418l0.002,0.004 C41.978,48.399,44.877,51,48.333,51h12.833C62.179,51,63,50.193,63,49.198v-3.396C63,44.807,62.179,44,61.167,44L48,44.052V22.041 H61.167z"></path><linearGradient id="TTLGBNTwf~_qpnyg4RWYrd" x1="52" x2="52" y1="9.333" y2="51.764" gradientUnits="userSpaceOnUse" spreadMethod="reflect"><stop offset="0" stop-color="#1a6dff"></stop><stop offset="1" stop-color="#c822ff"></stop></linearGradient><path fill="url(#TTLGBNTwf~_qpnyg4RWYrd)" d="M61.167,52H48.333c-3.761,0-7.162-2.735-8.096-6.507c-0.045-0.169-0.047-0.348-0.001-0.52 c0.072-0.268,0.25-0.495,0.495-0.626C42.728,43.284,44,41.179,44,38.828v-7.083c0-2.23-1.5-4.757-3.489-5.873 C40.195,25.695,40,25.361,40,25v-2.75c0-4.526,3.738-8.209,8.333-8.209h12.833c1.562,0,2.833,1.257,2.833,2.803v3.396 C64,21.784,62.729,23,61.167,23H49v20h12.163C62.729,43,64,44.257,64,45.802v3.396C64,50.743,62.729,52,61.167,52z M42.384,45.685 C43.306,48.223,45.707,50,48.333,50h12.833C61.626,50,62,49.641,62,49.198v-3.427c0-0.442-0.374-0.802-0.833-0.802l-13.142,0.01 c-0.001,0-0.002,0-0.004,0c-0.265,0-0.518-0.104-0.706-0.291c-0.188-0.188-0.294-0.443-0.294-0.709L47,22.041c0-0.553,0.448-1,1-1 h13.167c0.459,0,0.833-0.359,0.833-0.802l0.02-3.38c0-0.442-0.373-0.875-0.833-0.875L48.312,16C44.82,16,42,18.826,42,22.25v2.192 c2.346,1.576,4,4.554,4,7.308l-0.031,7.067C45.969,41.617,44.614,44.179,42.384,45.685z"></path><linearGradient id="TTLGBNTwf~_qpnyg4RWYre" x1="32.5" x2="32.5" y1="9.499" y2="51.631" gradientUnits="userSpaceOnUse" spreadMethod="reflect"><stop offset="0" stop-color="#1a6dff"></stop><stop offset="1" stop-color="#c822ff"></stop></linearGradient><path fill="url(#TTLGBNTwf~_qpnyg4RWYre)" d="M37.913,47H27.25c-4.531,0-8.217-3.678-8.217-8.2L19,17.209c0-4.521,3.686-8.2,8.217-8.2 L33.781,9C38.314,9,42,12.678,42,17.2v7.223c2.38,1.58,4,4.461,4,7.207l-0.031,7.152C45.969,43.389,42.43,47,37.913,47z M33.783,10.998L27.25,11C23.82,11,21,13.571,21,16.991v21.975c0,3.42,2.822,6.037,6.25,6.037h10.663 c3.396,0,6.056-2.734,6.056-6.224L44,31.626c0-2.21-1.467-4.64-3.489-5.774C40.195,25.676,40,25.342,40,24.982V17.2 C40,13.78,37.211,10.998,33.783,10.998z"></path><linearGradient id="TTLGBNTwf~_qpnyg4RWYrf" x1="32.5" x2="32.5" y1="31" y2="40" gradientUnits="userSpaceOnUse" spreadMethod="reflect"><stop offset="0" stop-color="#1a6dff"></stop><stop offset="1" stop-color="#c822ff"></stop></linearGradient><path fill="none" stroke="url(#TTLGBNTwf~_qpnyg4RWYrf)" stroke-miterlimit="10" stroke-width="2" d="M27,34v3c0,1.105,0.895,2,2,2h7 c1.105,0,2-0.895,2-2v-3c0-1.105-0.895-2-2-2h-7C27.895,32,27,32.895,27,34z"></path><linearGradient id="TTLGBNTwf~_qpnyg4RWYrg" x1="12" x2="12" y1="21" y2="34" gradientUnits="userSpaceOnUse" spreadMethod="reflect"><stop offset="0" stop-color="#1a6dff"></stop><stop offset="1" stop-color="#c822ff"></stop></linearGradient><path fill="none" stroke="url(#TTLGBNTwf~_qpnyg4RWYrg)" stroke-miterlimit="10" stroke-width="2" d="M8,24v7c0,1.105,0.895,2,2,2h4 c1.105,0,2-0.895,2-2v-7c0-1.105-0.895-2-2-2h-4C8.895,22,8,22.895,8,24z"></path><linearGradient id="TTLGBNTwf~_qpnyg4RWYrh" x1="30.5" x2="30.5" y1="16" y2="25" gradientUnits="userSpaceOnUse" spreadMethod="reflect"><stop offset="0" stop-color="#1a6dff"></stop><stop offset="1" stop-color="#c822ff"></stop></linearGradient><path fill="none" stroke="url(#TTLGBNTwf~_qpnyg4RWYrh)" stroke-miterlimit="10" stroke-width="2" d="M27,19v3c0,1.105,0.895,2,2,2h3 c1.105,0,2-0.895,2-2v-3c0-1.105-0.895-2-2-2h-3C27.895,17,27,17.895,27,19z"></path></svg>