<svg xmlns="http://www.w3.org/2000/svg" viewBox="0 0 64 64"><linearGradient id="VgqtjSjcCiw4~LGz3JAmIa" x1="52" x2="52" y1="7" y2="17.016" gradientUnits="userSpaceOnUse" spreadMethod="reflect"><stop offset="0" stop-color="#6dc7ff"></stop><stop offset="1" stop-color="#e6abff"></stop></linearGradient><path fill="url(#VgqtjSjcCiw4~LGz3JAmIa)" d="M47 7H57V17H47z"></path><linearGradient id="VgqtjSjcCiw4~LGz3JAmIb" x1="32" x2="32" y1="7" y2="17.016" gradientUnits="userSpaceOnUse" spreadMethod="reflect"><stop offset="0" stop-color="#6dc7ff"></stop><stop offset="1" stop-color="#e6abff"></stop></linearGradient><path fill="url(#VgqtjSjcCiw4~LGz3JAmIb)" d="M27 7H37V17H27z"></path><linearGradient id="VgqtjSjcCiw4~LGz3JAmIc" x1="12" x2="12" y1="7" y2="17.016" gradientUnits="userSpaceOnUse" spreadMethod="reflect"><stop offset="0" stop-color="#6dc7ff"></stop><stop offset="1" stop-color="#e6abff"></stop></linearGradient><path fill="url(#VgqtjSjcCiw4~LGz3JAmIc)" d="M7 7H17V17H7z"></path><linearGradient id="VgqtjSjcCiw4~LGz3JAmId" x1="22" x2="22" y1="17" y2="27.016" gradientUnits="userSpaceOnUse" spreadMethod="reflect"><stop offset="0" stop-color="#6dc7ff"></stop><stop offset="1" stop-color="#e6abff"></stop></linearGradient><path fill="url(#VgqtjSjcCiw4~LGz3JAmId)" d="M17 17H27V27H17z"></path><linearGradient id="VgqtjSjcCiw4~LGz3JAmIe" x1="42" x2="42" y1="17" y2="27.016" gradientUnits="userSpaceOnUse" spreadMethod="reflect"><stop offset="0" stop-color="#6dc7ff"></stop><stop offset="1" stop-color="#e6abff"></stop></linearGradient><path fill="url(#VgqtjSjcCiw4~LGz3JAmIe)" d="M37 17H47V27H37z"></path><linearGradient id="VgqtjSjcCiw4~LGz3JAmIf" x1="52" x2="52" y1="27" y2="37.016" gradientUnits="userSpaceOnUse" spreadMethod="reflect"><stop offset="0" stop-color="#6dc7ff"></stop><stop offset="1" stop-color="#e6abff"></stop></linearGradient><path fill="url(#VgqtjSjcCiw4~LGz3JAmIf)" d="M47 27H57V37H47z"></path><linearGradient id="VgqtjSjcCiw4~LGz3JAmIg" x1="32" x2="32" y1="27" y2="37.016" gradientUnits="userSpaceOnUse" spreadMethod="reflect"><stop offset="0" stop-color="#6dc7ff"></stop><stop offset="1" stop-color="#e6abff"></stop></linearGradient><path fill="url(#VgqtjSjcCiw4~LGz3JAmIg)" d="M27 27H37V37H27z"></path><linearGradient id="VgqtjSjcCiw4~LGz3JAmIh" x1="12" x2="12" y1="27" y2="37.016" gradientUnits="userSpaceOnUse" spreadMethod="reflect"><stop offset="0" stop-color="#6dc7ff"></stop><stop offset="1" stop-color="#e6abff"></stop></linearGradient><path fill="url(#VgqtjSjcCiw4~LGz3JAmIh)" d="M7 27H17V37H7z"></path><linearGradient id="VgqtjSjcCiw4~LGz3JAmIi" x1="52" x2="52" y1="47" y2="57.016" gradientUnits="userSpaceOnUse" spreadMethod="reflect"><stop offset="0" stop-color="#6dc7ff"></stop><stop offset="1" stop-color="#e6abff"></stop></linearGradient><path fill="url(#VgqtjSjcCiw4~LGz3JAmIi)" d="M47 47H57V57H47z"></path><linearGradient id="VgqtjSjcCiw4~LGz3JAmIj" x1="32" x2="32" y1="47" y2="57.016" gradientUnits="userSpaceOnUse" spreadMethod="reflect"><stop offset="0" stop-color="#6dc7ff"></stop><stop offset="1" stop-color="#e6abff"></stop></linearGradient><path fill="url(#VgqtjSjcCiw4~LGz3JAmIj)" d="M27 47H37V57H27z"></path><linearGradient id="VgqtjSjcCiw4~LGz3JAmIk" x1="12" x2="12" y1="47" y2="57.016" gradientUnits="userSpaceOnUse" spreadMethod="reflect"><stop offset="0" stop-color="#6dc7ff"></stop><stop offset="1" stop-color="#e6abff"></stop></linearGradient><path fill="url(#VgqtjSjcCiw4~LGz3JAmIk)" d="M7 47H17V57H7z"></path><linearGradient id="VgqtjSjcCiw4~LGz3JAmIl" x1="22" x2="22" y1="37" y2="47.016" gradientUnits="userSpaceOnUse" spreadMethod="reflect"><stop offset="0" stop-color="#6dc7ff"></stop><stop offset="1" stop-color="#e6abff"></stop></linearGradient><path fill="url(#VgqtjSjcCiw4~LGz3JAmIl)" d="M17 37H27V47H17z"></path><linearGradient id="VgqtjSjcCiw4~LGz3JAmIm" x1="42" x2="42" y1="37" y2="47.016" gradientUnits="userSpaceOnUse" spreadMethod="reflect"><stop offset="0" stop-color="#6dc7ff"></stop><stop offset="1" stop-color="#e6abff"></stop></linearGradient><path fill="url(#VgqtjSjcCiw4~LGz3JAmIm)" d="M37 37H47V47H37z"></path></svg>