<svg xmlns="http://www.w3.org/2000/svg" viewBox="0 0 64 64"><linearGradient id="gDS47racy0QOhl8F13gZ5a" x1="14.199" x2="14.199" y1="42.251" y2="47.943" gradientUnits="userSpaceOnUse" spreadMethod="reflect"><stop offset="0" stop-color="#6dc7ff"></stop><stop offset="1" stop-color="#e6abff"></stop></linearGradient><path fill="url(#gDS47racy0QOhl8F13gZ5a)" d="M15.266 47.897L11.719 44.35 13.133 42.936 16.68 46.483z"></path><linearGradient id="gDS47racy0QOhl8F13gZ5b" x1="19.875" x2="19.875" y1="36.751" y2="42.218" gradientUnits="userSpaceOnUse" spreadMethod="reflect"><stop offset="0" stop-color="#6dc7ff"></stop><stop offset="1" stop-color="#e6abff"></stop></linearGradient><path fill="url(#gDS47racy0QOhl8F13gZ5b)" d="M20.941 42.221L17.395 38.674 18.809 37.26 22.355 40.807z"></path><linearGradient id="gDS47racy0QOhl8F13gZ5c" x1="22.713" x2="22.713" y1="34.001" y2="39.099" gradientUnits="userSpaceOnUse" spreadMethod="reflect"><stop offset="0" stop-color="#6dc7ff"></stop><stop offset="1" stop-color="#e6abff"></stop></linearGradient><path fill="url(#gDS47racy0QOhl8F13gZ5c)" d="M23.779 39.383L20.232 35.836 21.646 34.422 25.193 37.969z"></path><linearGradient id="gDS47racy0QOhl8F13gZ5d" x1="28.389" x2="28.389" y1="28.5" y2="33.65" gradientUnits="userSpaceOnUse" spreadMethod="reflect"><stop offset="0" stop-color="#6dc7ff"></stop><stop offset="1" stop-color="#e6abff"></stop></linearGradient><path fill="url(#gDS47racy0QOhl8F13gZ5d)" d="M29.455 33.708L25.908 30.161 27.322 28.747 30.869 32.293z"></path><linearGradient id="gDS47racy0QOhl8F13gZ5e" x1="31.227" x2="31.227" y1="25.5" y2="30.75" gradientUnits="userSpaceOnUse" spreadMethod="reflect"><stop offset="0" stop-color="#6dc7ff"></stop><stop offset="1" stop-color="#e6abff"></stop></linearGradient><path fill="url(#gDS47racy0QOhl8F13gZ5e)" d="M32.293 30.871L28.746 27.323 30.16 25.909 33.707 29.457z"></path><linearGradient id="gDS47racy0QOhl8F13gZ5f" x1="36.902" x2="36.902" y1="20.125" y2="25.377" gradientUnits="userSpaceOnUse" spreadMethod="reflect"><stop offset="0" stop-color="#6dc7ff"></stop><stop offset="1" stop-color="#e6abff"></stop></linearGradient><path fill="url(#gDS47racy0QOhl8F13gZ5f)" d="M37.969 25.195L34.421 21.647 35.835 20.233 39.383 23.781z"></path><linearGradient id="gDS47racy0QOhl8F13gZ5g" x1="39.74" x2="39.74" y1="17.375" y2="22.507" gradientUnits="userSpaceOnUse" spreadMethod="reflect"><stop offset="0" stop-color="#6dc7ff"></stop><stop offset="1" stop-color="#e6abff"></stop></linearGradient><path fill="url(#gDS47racy0QOhl8F13gZ5g)" d="M40.807 22.357L37.259 18.809 38.673 17.395 42.221 20.943z"></path><linearGradient id="gDS47racy0QOhl8F13gZ5h" x1="45.416" x2="45.416" y1="11.376" y2="16.514" gradientUnits="userSpaceOnUse" spreadMethod="reflect"><stop offset="0" stop-color="#6dc7ff"></stop><stop offset="1" stop-color="#e6abff"></stop></linearGradient><path fill="url(#gDS47racy0QOhl8F13gZ5h)" d="M46.482 16.681L42.935 13.133 44.349 11.719 47.896 15.267z"></path><linearGradient id="gDS47racy0QOhl8F13gZ5i" x1="25.11" x2="25.11" y1="4.5" y2="59.128" gradientUnits="userSpaceOnUse" spreadMethod="reflect"><stop offset="0" stop-color="#1a6dff"></stop><stop offset="1" stop-color="#c822ff"></stop></linearGradient><path fill="url(#gDS47racy0QOhl8F13gZ5i)" d="M43.97 6L41.64 6 6 41.646 6 43.966 6.14 44.269 44.22 6.143z"></path><linearGradient id="gDS47racy0QOhl8F13gZ5j" x1="33" x2="33" y1="4.5" y2="59.128" gradientUnits="userSpaceOnUse" spreadMethod="reflect"><stop offset="0" stop-color="#1a6dff"></stop><stop offset="1" stop-color="#c822ff"></stop></linearGradient><path fill="url(#gDS47racy0QOhl8F13gZ5j)" d="M57.119,15.976l-7.095-7.095c-1.172-1.172-3.078-1.17-4.252,0L8.881,45.773 C8.313,46.341,8,47.096,8,47.9c0,0.803,0.313,1.558,0.881,2.126l7.095,7.095C16.562,57.707,17.331,58,18.101,58 c0.771,0,1.54-0.293,2.127-0.879l36.892-36.893C57.688,19.661,58,18.906,58,18.102C58,17.299,57.688,16.544,57.119,15.976z M55.705,18.813L18.813,55.706c-0.393,0.395-1.031,0.394-1.424,0.001l-7.095-7.095C10.104,48.421,10,48.168,10,47.9 s0.104-0.521,0.295-0.712l4.969-4.969l4.259,4.259l1.414-1.414l-4.259-4.259l7.1-7.1l4.259,4.259l1.414-1.414l-4.259-4.259l7.1-7.1 l4.259,4.26l1.414-1.414l-4.259-4.26l7.099-7.099l4.259,4.259l1.414-1.414l-4.259-4.259l4.968-4.968 c0.196-0.197,0.454-0.295,0.712-0.295s0.516,0.098,0.712,0.294l7.095,7.095c0.19,0.19,0.295,0.443,0.295,0.712 S55.896,18.624,55.705,18.813z"></path></svg>