<svg xmlns="http://www.w3.org/2000/svg" viewBox="0 0 64 64"><linearGradient id="zyXiLk4rEliCeR_kBVzZqa" x1="32" x2="32" y1="9.814" y2="53.91" gradientUnits="userSpaceOnUse" spreadMethod="reflect"><stop offset="0" stop-color="#1a6dff"></stop><stop offset="1" stop-color="#c822ff"></stop></linearGradient><path fill="url(#zyXiLk4rEliCeR_kBVzZqa)" d="M57,46.142V17.858c1.721-0.447,3-2,3-3.858c0-2.206-1.794-4-4-4c-1.859,0-3.411,1.28-3.858,3 H11.858C11.411,11.28,9.859,10,8,10c-2.206,0-4,1.794-4,4c0,1.858,1.279,3.411,3,3.858v28.284c-1.721,0.447-3,2-3,3.858 c0,2.206,1.794,4,4,4c1.859,0,3.411-1.28,3.858-3h40.284c0.447,1.72,1.999,3,3.858,3c2.206,0,4-1.794,4-4 C60,48.142,58.721,46.589,57,46.142z M9,46.142V17.858c1.399-0.364,2.494-1.459,2.858-2.858h40.284 c0.364,1.399,1.459,2.494,2.858,2.858v28.284c-1.399,0.364-2.494,1.459-2.858,2.858H11.858C11.494,47.601,10.399,46.506,9,46.142z"></path><linearGradient id="zyXiLk4rEliCeR_kBVzZqb" x1="8" x2="8" y1="12" y2="16.02" gradientUnits="userSpaceOnUse" spreadMethod="reflect"><stop offset="0" stop-color="#6dc7ff"></stop><stop offset="1" stop-color="#e6abff"></stop></linearGradient><path fill="url(#zyXiLk4rEliCeR_kBVzZqb)" d="M8 12A2 2 0 1 0 8 16A2 2 0 1 0 8 12Z"></path><linearGradient id="zyXiLk4rEliCeR_kBVzZqc" x1="56" x2="56" y1="12" y2="16.02" gradientUnits="userSpaceOnUse" spreadMethod="reflect"><stop offset="0" stop-color="#6dc7ff"></stop><stop offset="1" stop-color="#e6abff"></stop></linearGradient><path fill="url(#zyXiLk4rEliCeR_kBVzZqc)" d="M56 12A2 2 0 1 0 56 16A2 2 0 1 0 56 12Z"></path><linearGradient id="zyXiLk4rEliCeR_kBVzZqd" x1="8" x2="8" y1="48" y2="52.02" gradientUnits="userSpaceOnUse" spreadMethod="reflect"><stop offset="0" stop-color="#6dc7ff"></stop><stop offset="1" stop-color="#e6abff"></stop></linearGradient><path fill="url(#zyXiLk4rEliCeR_kBVzZqd)" d="M8 48A2 2 0 1 0 8 52A2 2 0 1 0 8 48Z"></path><linearGradient id="zyXiLk4rEliCeR_kBVzZqe" x1="56" x2="56" y1="48" y2="52.02" gradientUnits="userSpaceOnUse" spreadMethod="reflect"><stop offset="0" stop-color="#6dc7ff"></stop><stop offset="1" stop-color="#e6abff"></stop></linearGradient><path fill="url(#zyXiLk4rEliCeR_kBVzZqe)" d="M56 48A2 2 0 1 0 56 52A2 2 0 1 0 56 48Z"></path></svg>